<svg xmlns="http://www.w3.org/2000/svg" xmlns:xlink="http://www.w3.org/1999/xlink" width="959.542" height="751.62" viewBox="0 0 959.542 751.62"><defs><style>.a{fill:url(#a);}.b{fill:#8ec9f9;}.c,.e{fill:none;}.c{stroke:#607d8b;stroke-width:3px;}.d{stroke:none;}</style><linearGradient id="a" x1="0.337" y1="1.031" x2="0.567" y2="-0.152" gradientUnits="objectBoundingBox"><stop offset="0" stop-color="#bbdefb"/><stop offset="1" stop-color="#42a5f5"/></linearGradient></defs><g transform="translate(-960 -224.38)"><path class="a" d="M5365.461-34.751s-81.949,29.589-140.2,63.06-84.887,54.388-71.484,109.7,30.9,71.045,111.322,99.314c50.182,17.64,134.035,25.811,256.156,76.205s95.314,102.017,254.667,168.389,333.99,43.019,333.99,43.019V-41.449S6027.9-64.958,5900.685-72.795s-179.582-7.836-304.745,0S5365.461-34.751,5365.461-34.751Z" transform="translate(-4190.367 303.051)"/><circle class="b" cx="27" cy="27" r="27" transform="translate(1760 922)"/><g class="c" transform="translate(1743 910)"><circle class="d" cx="27" cy="27" r="27"/><circle class="e" cx="27" cy="27" r="25.5"/></g><circle class="b" cx="10" cy="10" r="10" transform="translate(1835 900)"/><circle class="b" cx="10" cy="10" r="10" transform="translate(1777 850)"/></g></svg>